<mxfile host="65bd71144e">
    <diagram id="rbemb-5QT7jkrFbRucid" name="PAP_1">
        <mxGraphModel dx="1080" dy="790" grid="1" gridSize="10" guides="1" tooltips="1" connect="1" arrows="1" fold="1" page="1" pageScale="1" pageWidth="827" pageHeight="1169" math="0" shadow="0">
            <root>
                <mxCell id="0"/>
                <mxCell id="1" parent="0"/>
                <mxCell id="14" value="" style="edgeStyle=none;html=1;" edge="1" parent="1" source="6" target="8">
                    <mxGeometry relative="1" as="geometry"/>
                </mxCell>
                <mxCell id="6" value="Start" style="rounded=1;whiteSpace=wrap;html=1;" vertex="1" parent="1">
                    <mxGeometry x="60" y="60" width="150" height="60" as="geometry"/>
                </mxCell>
                <mxCell id="7" value="Stop" style="rounded=1;whiteSpace=wrap;html=1;" vertex="1" parent="1">
                    <mxGeometry x="60" y="340" width="150" height="60" as="geometry"/>
                </mxCell>
                <mxCell id="15" value="" style="edgeStyle=none;html=1;" edge="1" parent="1" source="8" target="10">
                    <mxGeometry relative="1" as="geometry"/>
                </mxCell>
                <mxCell id="8" value="firstName = &quot;Max&quot;" style="rounded=0;whiteSpace=wrap;html=1;" vertex="1" parent="1">
                    <mxGeometry x="60" y="155" width="150" height="60" as="geometry"/>
                </mxCell>
                <mxCell id="16" value="" style="edgeStyle=none;html=1;" edge="1" parent="1" source="10" target="7">
                    <mxGeometry relative="1" as="geometry"/>
                </mxCell>
                <mxCell id="10" value="Ausgabe firstName" style="shape=parallelogram;perimeter=parallelogramPerimeter;whiteSpace=wrap;html=1;fixedSize=1;" vertex="1" parent="1">
                    <mxGeometry x="60" y="248" width="150" height="60" as="geometry"/>
                </mxCell>
            </root>
        </mxGraphModel>
    </diagram>
    <diagram name="Copy of PAP_1" id="PK7lrpKMSZgiiM2O9FkY">
        <mxGraphModel dx="1080" dy="790" grid="1" gridSize="10" guides="1" tooltips="1" connect="1" arrows="1" fold="1" page="1" pageScale="1" pageWidth="827" pageHeight="1169" math="0" shadow="0">
            <root>
                <mxCell id="WVrWoCyWh7l039VKgMtK-0"/>
                <mxCell id="WVrWoCyWh7l039VKgMtK-1" parent="WVrWoCyWh7l039VKgMtK-0"/>
                <mxCell id="WVrWoCyWh7l039VKgMtK-2" value="" style="edgeStyle=none;html=1;" edge="1" parent="WVrWoCyWh7l039VKgMtK-1" source="WVrWoCyWh7l039VKgMtK-3" target="WVrWoCyWh7l039VKgMtK-6">
                    <mxGeometry relative="1" as="geometry"/>
                </mxCell>
                <mxCell id="WVrWoCyWh7l039VKgMtK-3" value="Start" style="rounded=1;whiteSpace=wrap;html=1;" vertex="1" parent="WVrWoCyWh7l039VKgMtK-1">
                    <mxGeometry x="60" y="60" width="150" height="60" as="geometry"/>
                </mxCell>
                <mxCell id="WVrWoCyWh7l039VKgMtK-4" value="Stop" style="rounded=1;whiteSpace=wrap;html=1;" vertex="1" parent="WVrWoCyWh7l039VKgMtK-1">
                    <mxGeometry x="60" y="340" width="150" height="60" as="geometry"/>
                </mxCell>
                <mxCell id="WVrWoCyWh7l039VKgMtK-5" value="" style="edgeStyle=none;html=1;" edge="1" parent="WVrWoCyWh7l039VKgMtK-1" source="WVrWoCyWh7l039VKgMtK-6" target="WVrWoCyWh7l039VKgMtK-8">
                    <mxGeometry relative="1" as="geometry"/>
                </mxCell>
                <mxCell id="WVrWoCyWh7l039VKgMtK-6" value="familyName = &quot;MÃ¼tze&quot;" style="rounded=0;whiteSpace=wrap;html=1;" vertex="1" parent="WVrWoCyWh7l039VKgMtK-1">
                    <mxGeometry x="60" y="155" width="150" height="60" as="geometry"/>
                </mxCell>
                <mxCell id="WVrWoCyWh7l039VKgMtK-7" value="" style="edgeStyle=none;html=1;" edge="1" parent="WVrWoCyWh7l039VKgMtK-1" source="WVrWoCyWh7l039VKgMtK-8" target="WVrWoCyWh7l039VKgMtK-4">
                    <mxGeometry relative="1" as="geometry"/>
                </mxCell>
                <mxCell id="WVrWoCyWh7l039VKgMtK-8" value="Ausgabe familyName" style="shape=parallelogram;perimeter=parallelogramPerimeter;whiteSpace=wrap;html=1;fixedSize=1;" vertex="1" parent="WVrWoCyWh7l039VKgMtK-1">
                    <mxGeometry x="60" y="248" width="150" height="60" as="geometry"/>
                </mxCell>
            </root>
        </mxGraphModel>
    </diagram>
</mxfile>